<svg xmlns="http://www.w3.org/2000/svg" width="373.684" height="383.36" viewBox="0 0 373.684 383.36"><path fill="#F4F4F4" d="M266.785 322.493c-11.739 11.067-16.09 28.932-25.742 40.555-3.759 5.559-12.143 8.532-20.303 9.946-3.082-24.473 16.496-46.082 35.286-57.643 39.97-24.546 91.216-26.099 98.793-20.233-31.074-6.2-65.202 5.855-88.034 27.375m-61.281 52.8c3.828-76.17 126.898-96.678 142.607-85.218-33.117-1.096-69.259 5.668-96.651 25.103-42.423 30.102-30.531 48.711-36.216 56.124-1.53 2.01-4.179 3.71-9.74 3.991m39.83-74.407c34.096-20.826 78.772-27.066 93.511-17.253-124.13 10.62-128.096 70.641-138.85 86.247-2.05 2.971-6.596 3.548-9.828 2.704 6.008-32.099 31.346-57.148 55.167-71.698m-19.794 5.576c23.239-11.286 70.382-44.371 100.74-30.786 0 0-45.04-2.64-86.433 25.531-16.298 11.093-35.074 25.328-44.383 43.165-8.375 16.036-8.033 34.844-30.02 22.385-.869-19.68 34.457-47.83 60.096-60.295m67.159-51.752c-26.07-7.548-45.897-36.83-45.693-63.857.112-14.771 3.721-29.214 2.358-43.405-.166-1.818-.323-3.771-.37-5.599.176.141.343.36.491.646.771 1.462 1.298 4.574 1.661 5.655.7 2.126 1.376 4.245 2.002 6.389 1.283 4.361 2.375 8.774 3.235 13.235 3.141 16.034 3.453 32.611 7.837 48.395 2.126 7.616 5.357 14.843 10.159 21.156 2.495 3.276 5.356 6.273 8.402 9.062 2.433 2.247 6.736 7.408 9.918 8.323m9.037.652c-21.83-5.124-20.939-45.393-22.89-62.241-2.24-19.37-2.61-38.2-18.702-51.43 9.625 3.163 17.294 24.606 18.862 30.619 3.056 11.752 4.207 23.88 5.715 35.892 2.23 17.788 8.007 32.799 17.015 47.16m-8.646-52.771c3.434 20.416 7.107 39.782 17.173 58.093-.713-1.277-3.363-2.777-4.42-4.158-6.355-8.353-10.782-18.725-13.492-28.823-2.81-10.479-3.853-21.148-5.018-31.906-1.78-16.552-4.841-31.732-13.057-45.478 11.387 14.14 16.097 36.092 18.814 52.272m58.064 57.987c1.268 6.775 1.992 19.799 6.529 25.245-21.885-26.324-24.279-62.19-32.991-95.239 5.766 10.683 11.612 20.314 16.22 30.987 1.773 4.079 3.346 8.301 4.678 12.799 2.518 8.558 3.911 17.45 5.564 26.208m-35.673-86.386c19.084 62.857 19.183 86.885 31.035 102.232-16.987-15.688-28.467-93.738-31.035-102.232m-1.548-3.988c.383.931.726 1.886 1.085 2.817-.377-.993-.751-1.999-1.183-3l.098.183m-18.778-30.433c5.563 5.784 9.584 12.514 13.217 19.589-6.52-10.602-15.572-19.293-27.32-24.603 4.61-.841 9.241-.04 14.103 5.014m-17.972-1.405c2.45-.012 4.869.169 7.52 1.37 5.366 2.388 9.659 6.837 13.236 11.368 7.43 9.395 12.43 20.466 15.668 31.932 1.942 6.836 3.459 13.831 4.73 20.816 4.69 25.876 10.108 50.972 23.996 72.962-1.251-1.981-4.965-3.739-6.803-5.294-2.186-1.857-4.269-3.84-6.134-6.021-3.972-4.631-6.817-10.017-8.89-15.723-4.532-12.464-6.067-25.955-8.202-38.981-1.111-6.738-2.096-13.525-3.438-20.221-4.613-22.854-12.009-50.073-38.253-52.213 2.34.194 4.46.024 6.57.005m25.415 40.304c-5.42-14.671-15.756-31.878-30.623-37.723 17.823 2.786 26.009 19.601 30.623 37.723m23.3 89.052c-2.438-1.241-4.537-4.138-6.295-6.667-2.225-3.201-3.841-6.848-5.274-10.467-3.154-7.918-4.871-16.212-5.511-24.715-.469-6.383-.623-12.984-1.032-19.559.32 2.039.632 4.015.961 5.854 3.13 17.739 6.31 39.847 17.151 55.554m-31.263-77.436c-3.875-15.421-8.916-34.361-20.98-45.792 18.803 10.213 28.217 39.769 29.755 58.372 1.838 22.329 2.23 42.541 13.371 60.587l-.241-.107c-15.475-22.327-15.41-47.214-21.905-73.06m-64.932-70.962c1.73 2.754 3.072 5.427 4.1 8.124 2.385 6.264 2.982 12.601 2.478 20.121-.665 9.957-2.335 19.705-3.579 29.604-.689 5.472-.972 11.077-.681 16.595 1.159 21.049 11.265 37.643 24.154 53.538-9.916-2.026-16.551-11.982-21.125-20.136-4.315-7.636-7.303-16.001-8.938-24.614-2.595-13.807-.368-26.115 1.985-39.747 2.323-13.413 5.063-29.933 1.606-43.485m-10.381 49.937c3.035-23.679 3.542-48.141-8.017-68.608 26.862 14.664 13.44 54.328 10.197 78.658-3.279 24.485 6.086 48.231 22.787 65.876-.933-.991-4.502-1.519-5.964-2.726-8.532-6.965-13.506-18.315-16.652-28.813-4.479-14.953-4.331-29.064-2.351-44.387m-18.243-74.539l.391.258c2.224 1.596 4.137 3.527 5.738 5.748 3.792 5.274 5.796 11.759 7.198 18.038 2.861 12.753 2.92 25.824 1.978 38.807-.546 7.651-1.43 15.28-2.183 22.937-2.28 23.522 5.798 42.796 17.627 62.483-10.071-4.181-17.177-17.063-21.408-26.379-4.519-9.941-8.258-23.32-7.375-34.347.809-10.248 1.983-20.605 2.019-30.994l-.041-.098.157-1.192c3.016-20.656 5.106-43.11-10.365-58.706 1.465 1.471 4.367 2.261 6.264 3.445m-13.43-2.623c2.941 1.12 5.903 3.027 8.261 5.791 3.933 4.611 5.81 10.759 6.809 16.65 2.09 12.312-.003 24.738-1.746 36.949-.972 6.866-2.173 13.824-2.669 20.744-.408 5.908-.228 11.822.459 17.64-.799 14.381-.229 28.469 5.862 42.105-20.64-12.55-10.452-54.662-8.836-73.507 1.913-22.238 5.095-52.069-13.489-68.27 2.41.429 3.498 1.189 5.349 1.898m-11.366-1.06c.416.189.786.357.971.483 3.462 2.307 6.521 5.304 8.91 8.723 3.546 5.054 5.378 11.144 6.44 17.168 2.285 12.946 1.162 26.306-.135 39.309-.683 6.806-1.642 13.609-2.263 20.436-.428 4.886-1.08 10.686-1.412 16.733-.33-12.824 1.836-25.75 2.012-38.89.328-22.413-3.546-46.248-16.474-64.929.132.2 1.131.606 1.951.967m-11.775-.484c1.34.476 2.695 1.164 3.948 1.899l.501.304c8.091 4.963 10.329 14.238 13.002 22.697 2.937 9.308 4.261 18.65 4.896 28.378.335 5.202.275 10.393-.057 15.602-.78 12.374-2.536 24.795-1.887 37.032-5.602-36.884 4.604-78.315-26.602-106.389.789.719 4.861-.003 6.199.477m2.363 70.792c-1.819-22.907-2.727-47.782-15.183-67.657 40.842 25.909 9.336 83.096 27.253 120.326l-.032-.023c-8.821-15.268-10.614-34.842-12.038-52.646m-73.837-97.411c.095 2.358-1.627 4.54-3.101 6.185-3.596 4.023-8.493 6.531-13.619 7.948-10.829 2.958-22.033 2.141-33.117 2.434-6.993.189-13.599.942-19.713 3.322 1.086-.418 2.189-2.512 3.104-3.321.604-.538 1.22-1.029 1.866-1.486 10.75-7.722 26.383-5.348 38.748-7.695 9.744-1.856 15.92-6.076 23.387-12.137 1.323.87 2.379 3.106 2.445 4.75m-10.749-9.128c2.836.158 4.471 1.233 3.503 3.93-2.231 6.233-12.429 8.487-17.974 9.582-5.064 1.007-10.257 1.364-15.403 1.821-3.842.337-11.305-.185-14.634 1.94 7.27-4.638 14.891-8.896 22.881-12.171 1.842-.748 15.006-5.439 21.627-5.102m-1.25-6.381c.346 4.703-4.725 5.419-8.356 6.337-12.124 3.09-23.398 8.194-34.134 14.636 1.722-1.026 3.304-3.063 4.736-4.621 2.029-2.199 3.826-4.04 5.911-5.915 2.673-2.389 5.782-4.428 8.727-6.456 4.106-2.84 8.517-5.328 12.762-7.966 1.643-1.035 3.76-3.899 5.767-3.6 2.446.341 4.426 5.506 4.587 7.585m-8.418-15.312c1.069-.441 1.876.053 2.181 2.098 1.064 7.111-7.469 7.384-11.867 10.395.878-1.225 6.457-11.157 9.686-12.493m-1.872-7.586c2.958 3.078-2.026 6.264-3.675 8.389-3.199 4.13-5.363 8.93-8.797 12.922-1.293 1.499-2.7 2.852-4.154 4.138.407-4.217 1.415-7.582 3.235-10.991.497-.912 1.044-1.834 1.659-2.776 1.594-2.433 3.708-4.55 5.43-6.884 1.513-2.072 3.341-7.879 6.302-4.798m-7.888-7.276c1.22-1.055 2.577 2.025 2.036 4.121-1.045 3.975-3.965 8.165-6.32 11.441 1.622-4.603 2.11-9.504 3.459-13.976.249-.825.542-1.329.825-1.586m-5.73-8.073c1.551-1.88 2.099 4.65 2.073 4.961-.193 3.03-.688 6.119-1.38 9.083-.092-2.271-1.581-8.952-1.225-12.359.075-.748.244-1.329.532-1.685m-37.019 79.035c5.108-4.966 11.736-5.138 18.429-5.57 13.817-.902 28.694-.225 42.003-4.457 6.638-2.11 12.489-6.266 15.524-12.77-.23.499.879 2.548.906 3.185.254 7.833-14.429 14.49-20.236 16.486-9.596 3.304-20.032 4.002-29.95 5.896-5.722 1.095-11.476 2.76-16.715 5.33-5.973 2.927-12.59 8.427-17.562 14.895l.063-2.025c.332-7.539 1.905-15.501 7.538-20.97m-5.909 27.269c2.891-6.94 8.96-12.733 15.329-16.554 13.214-7.923 26.492-6.042 40.628-9.322 10.695-2.48 22.216-9.376 26.376-14.534-1.194 3.651-2.21 6.381-4.145 9.105-2.027 2.835-5.149 4.899-7.999 6.809-10.157 6.822-14.637 5.336-24.038 6.905-8.532 1.431-16.617 4.964-23.418 10.402-8.207 6.563-18.001 16.138-24.502 26.793 1.02-1.667-.237-7.503-.215-9.499.036-2.854.398-5.483 1.244-8.114.215-.663.465-1.326.74-1.991m17.659 12.295c-7.721 5.59-13.937 12.4-19.034 20.453.604-5.956 1.483-15.133 12.927-27.003 7.023-7.26 15.265-14.831 24.653-18.762 9.548-3.997 20.023-2.975 29.642-6.613 4.552-1.729 8.513-4.867 12.527-7.853-2.749 7.201-5.145 14.007-11.619 18.679-5.72 4.141-12.694 6.144-19.31 8.392-10.166 3.444-20.977 6.326-29.786 12.707m5.09 8.924c-12.124 4.771-18.462 10.835-23.872 20.494 4.755-18.942 22.978-31.361 40.713-37.807 9.295-3.378 20.796-6.621 30.079-12.189-2.477 4.507-5.247 8.822-8.389 12.755-9.901 9.575-25.541 11.64-38.531 16.747m-16.371 27.158c.43-.276 1.163-.475 2.277-.536 10.915-.646 24.137 18.56 30.562 25.616 10.504 11.557 20.62 21.578 35.131 27.811 14.098 6.058 30.081 7.618 45.274 7.683 12.631.035 27.715-2.093 40.489 1.466-12.471-.268-25.741 5.214-37.84 5.134-21.525-.159-49.621-4.765-66.184-19.906-12.248-11.218-22.697-24.361-35.49-34.995-2.007-1.665-17.697-10.014-14.219-12.273m-5.646 5.078c7.911-1.675 28.551 19.957 32.29 23.814 8.525 8.766 16.811 19.746 27.85 25.524 17.023 8.954 36.082 15.832 55.397 15.962 21.778.154 36.15-11.23 59.089-.98-5.54-.288-10.319-.667-15.756.145-8.547 1.264-16.409 4.837-24.821 6.656-21.59 4.671-42.245-1.988-61.335-12.008-15.984-8.389-30.844-19.366-47.421-26.628-7.64-3.334-16.366-7.277-24.39-9.033-8.223-1.81-4.353-8.016-3.522-14.772.565-4.579 1.292-8.384 2.619-8.68m-6.19 27.557c33.483-.02 63.262 30.46 93.535 41.119 13.1 4.622 25.934 7.399 39.821 5.66 7.185-.894 14.106-3.26 21.076-5.043 10.753-2.738 22.202-3.264 32.795-2.321-23.275.486-31.268 4.012-47.315 10.108-23.58 8.931-42.608 2.776-63.433-9.287-12.647-7.352-25.303-15.097-39.091-20.2-6.971-2.585-14.092-4.572-21.506-5.212-13.14-1.143-17.531.974-15.882-14.824m.94 18.084c17.628-2.337 41.622 6.36 56.534 14.801 12.547 7.082 24.874 15.71 38.62 20.361 12.868 4.348 24.802 4.711 37.862.879 16.573-4.852 29.619-13.246 47.261-10.665-4.249 1.681-8.469 3.874-13.236 6.03-13.914 6.296-28.854 11.101-44.151 12.378-13.509 1.123-29.795 1.329-42.375-4.635-7.132-3.388-14.142-7.449-20.254-12.452-33.34-27.191-60.261-26.697-60.261-26.697m1.125 4.563c14.792-10.058 64.405 30.826 75.714 36.193 15.808 7.515 36.57 7.381 53.458 4.474 9.754-1.699 19.455-4.097 28.686-7.746 7.519-2.97 14.442-7.415 22.085-10.108 6.228-2.185 12.876-3.304 18.998-.095-6.696 1.32-12.265 4.243-18.464 8.328-12.467 8.266-26.778 15.386-41.494 18.556-24.685 5.308-46.174 2.494-67.484-10.213-10.583-6.323-20.486-13.608-31.764-18.719-5.5-2.483-12.114-4.232-18.229-5.059-5.072-.706-8.558 1.933-12.502.241-5.264-2.254-7.6-10.922-9.004-15.852m47.514 38.331c-23.847-7.991-30.776-3.163-38.22-17.686 14.08-9.818 37.486 7.23 49.406 14.461 10.208 6.173 21.458 14.633 33.419 16.953 16.879 3.261 34.254 2.421 50.848-1.777 7.677-1.931 15.294-4.917 22.383-8.433 11.636-5.736 24.26-16.563 37.382-17.958l.27.074c-21.242 8.338-35.214 25.449-57.139 32.928-10.587 3.603-23.537 4.703-36.211 3.048-22.22-2.891-41.118-14.567-62.138-21.61m-10.95 13.354c-7.068-3.059-13.532-11.846-18.063-17.724 13.795 2.474 27.635 6.243 40.663 11.289 19.291 7.477 35.125 16.476 56.253 17.615 1.281.064 8.795-.644 10.107-.623-12.403 4.141-35.049 4.235-50.357-.482-7.029-2.165-13.755-5.436-20.894-7.274-5.947-1.529-12.009-.363-17.709-2.801m.479 4.065c7.297-3.876 31.909 6.624 37.374 8.287 7.574 2.286 14.559 4.097 22.587 3.772 13.45-.578 28.712-2.814 41.802-6.677 9.253-1.874 18.188-5.257 25.606-10.375 13.101-9.041 25.485-19.237 41.037-23.804-28.301 12.772-46.88 38.226-79.861 42.534-13.78 1.812-27.697 1.622-41.568 1.336-8.413-.17-17.922-1.108-26.293-2.275-10.652-1.493-13.813-5.144-20.684-12.798m17.725 20.334c-1.042-1.294-2.105-2.585-3.204-3.881 28.751-1.116 57.805 3.221 86.049-3.936 14.95-3.778 28.368-11.644 40.969-20.286 8.148-5.589 23.685-18.411 33.805-17.974-12.59 4.684-17.987 10.064-28.91 17.696-16.064 11.177-36.288 26.061-55.898 29.5-10.496 1.825-21.387.893-31.973 1.429-6.213.322-12.586.957-18.588 2.676-4.044 1.155-7.52 4.767-11.948 3.715-4.203-.981-7.712-5.735-10.302-8.939m11.881 14.101c9.652-10.207 30.928-7.966 43.553-8.657 10.189-.55 19.845-1.434 29.202-5.673 14.917-6.764 29.469-14.556 42.91-23.932 15.443-10.766 23.158-16.724 44.016-19.145-18.623 5.159-30.626 16.513-44.086 27.055-18.128 14.223-35.869 27.136-59.375 30.261-8.91 1.183-17.962 1.513-26.804 3.203-5.106.984-9.845 4.235-14.991 5.05-7.169 1.151-9.745-2.944-14.425-8.162m-32.97-170.522c-16.079 6.166-25.757 14.51-26.129 15.129 4.027-6.682 9.129-11.92 17.839-15.349 7.859-3.091 16.07-5.062 24-7.975 3.162-1.168 6.214-2.427 9.062-3.884-1.895 1.778-14.471 8.14-24.772 12.079m106.638 69.243c4.215 1.071 8.399 3.701 12.253 5.837-9.455-3.114-17.888-2.154-27.723-2.246-18.299-.173-36.149-4.247-52.026-13.71-14.309-8.512-28.299-19.745-38.546-33.015-4.303-5.565-7.868-10.339-14.065-11.356 1.361-.816 2.717-1.56 4.088-2.27 25.79 9.259 42.941 31.182 66.638 43.869 14.574 7.814 46.602 12.176 49.381 12.891m-41.274-23.25c-15.288-13.782-31.411-31.998-43.298-48.848-.099-.143-.244-.241-.396-.324 2.246-1.422 4.414-2.925 6.479-4.561 12.718-.661 26.39 34.41 30.913 42.305 8.993 15.669 28.493 24.91 45.184 31.097-12.864-2.709-19.57-2.254-38.882-19.669m-2.382.991c-18.535-12.56-35.295-28.277-51.986-44.154 1.285-.692 2.589-1.417 3.923-2.202 1.228-.618 2.437-1.259 3.631-1.924 12.553 17.766 27.891 34.156 44.432 48.28m-7.397 4.774c-19.928-14.266-38.58-32.507-62.073-40.712 4.567-2.191 9.268-4.123 14.203-6.542 23.673 22.5 46.915 44.308 75.566 57.75-9.981-1.936-19.158-4.384-27.696-10.496m-17.853 20.289c-21.495-13.633-35.017-43.61-60.367-50.63 1.995-1.766 3.989-3.295 6.001-4.659 7.672.304 10.75 7.742 15.459 12.869 5.15 5.619 10.424 11.168 16.227 16.109 9.308 7.939 19.373 15.257 30.665 20.107 10.516 4.505 21.756 8.17 33.262 8.841 9.781.574 19.669-.029 29.415 1.172 7.924.97 14.993 2.419 22.495 9.537-9.125-1.941-19.056-1.302-28.146-1.183-21.681.294-46.013-.112-65.011-12.163m105.887 9.816c-16.717-20.935-10.342-51.225-10.375-78.528 2.591 26.221-.672 54.514 10.375 78.528m-46.502-32.584c3.093 3.622 7.152 6.68 9.27 9.716-14.042-6.966-27.367-14.823-35.988-28.964-10.099-16.567-16.411-35.683-33.235-46.479 1.932-2.23 3.741-4.606 5.424-7.146l.581-.698c13.666 12.868 19.666 31.054 29.086 46.81 4.971 8.289 10.915 14.674 18.109 20.992 2.042 1.778 4.822 3.517 6.753 5.769m-12.865-92.88c-2.113-3.446-5.324-8.363-8.809-10.579.74.387 1.448.834 2.123 1.341 6.092 4.541 10.133 12.441 13.564 18.642 4.538 8.149 7.467 17.899 9.823 26.915 1.299 4.94 2.102 10.052 2.431 15.15.996 14.919-.464 29.843 5.142 43.326-.636-1.052-1.246-2.124-1.772-3.246-5.954-12.804-6.616-26.614-9.377-40.282-3.419-17.067-3.793-36.007-13.125-51.267m12.644 73.545c-10.035-29.88-8.657-65.234-37.816-84.741.671-2.034 1.196-4.068 1.594-6.082-.137.749 4.174 2.715 4.707 3.015 2.501 1.413 4.243 2.746 6.361 4.699 2.18 1.988 4.174 4.141 5.942 6.488 13.468 17.752 14.125 41.886 17.266 63.054.641 4.322 1.172 8.943 1.946 13.567m-48.791-60.856c26.009 17.37 33.633 48.313 48.19 74.53-26.165-16.622-28.659-50.553-51.012-70.621 1.013-1.316 1.955-2.625 2.822-3.909m43.776 57.691c-10.646-22.698-19.816-46.287-42.046-60.383 3.384-5.435 5.583-10.488 6.92-15.086.439-1.055.895-2.105 1.304-3.162 25.154 18.881 25.469 50.651 33.822 78.631m27.625 14.821c-3.324-14.53-4.749-30.022-8.904-44.059-4.281-14.436-9.714-37.136-22.114-48.793.765.721 2.472.429 3.453.822 1.86.728 4.07 1.942 5.962 3.317 1.022.735 1.941 1.518 2.682 2.307 3.544 3.774 7.112 8.1 9.047 12.945 2.134 5.34 3.224 11.218 4.244 16.863 2.129 11.949 2.744 24.141 3.622 36.234.488 6.805 1.056 13.605 2.008 20.364m-10.577-35.448c3.878 21.174 5.956 43.98 16.152 61.52-.166-.131-.329-.252-.515-.375-21.292-15.362-14.597-45.85-19.19-67.553-3.906-18.444-10.4-34.248-20.521-49.611 15.785 15.444 20.098 34.344 24.074 56.019m-16.749 48.631c5.779 3.312 17.247 8.658 20.841 11.917-17.388-5.156-36.048-12.926-46.986-28.159-4.884-6.807-8.239-14.725-12.261-22.027-4.452-8.07-12.191-24.79-23.167-26.371 1.587-1.399 3.113-2.858 4.58-4.395 17.527 12.378 23.084 34.344 35.643 51.197 5.629 7.555 13.247 13.187 21.35 17.838m-44.205 130.52c-1.06-.892-2.088-1.807-3.116-2.736 16.73-9.713 34.689-6.739 53.148-11.212 12.857-3.126 24.313-8.254 35.139-15.977 11.699-8.345 23.034-17.208 35.088-25.063 11.622-7.565 22.747-13.387 35.598-15.337-10.336 3.639-13.937 7.775-22.652 14.788-8.497 6.842-16.548 14.33-25.795 20.207-21.344 13.615-44.142 24.995-69.001 30.547-8.319 1.865-17.079 2.492-25.176 5.241-3.471 1.168-5.63 2.326-7.868 2.183-1.577-.101-3.203-.834-5.365-2.641m110.15-117.686c4.104 12.466 10.932 23.919 20.476 33.266-3.275-1.664-7.851-2.716-14.528-12.898-4.396-6.693-3.479-12.828-5.948-20.368m-88.7 130.922c-4.615-2.521-9.299-4.826-13.748-7.659 12.526-7.484 32.036-7.6 45.164-11.821 15.76-5.087 30.942-11.748 45.187-20.229 11.933-7.123 22.242-15.163 32.895-24.022 10.054-8.364 17.872-14.915 32.409-17.416-21.323 7.944-31.762 26.704-54.513 37.618-6.93 3.339-13.871 6.655-20.741 10.051-12.29 6.078-25.019 12.912-36.315 20.721-9.235 6.38-18.073 19.431-30.338 12.757m23.495 6.944c-5.52 4.874-12.163-.858-12.163-.858 22.621-21.501 54.136-36.407 81.804-49.7 13.975-6.695 24.644-18.269 37.715-26.261 13.32-8.14 18.998-9.367 33.019-8.308-10.891-.034-19.346 8.417-27.583 13.767-12.276 7.99-22.424 17.204-35.163 24.49-6.546 3.745-13.346 6.724-20.24 9.718-12.184 5.321-24.316 10.301-35.746 17.142-5.691 3.408-10.893 6.85-15.234 11.942-2.014 2.345-4.076 6.013-6.409 8.068m7.345 10.317c-.903-.128-7.829-4.228-7.785-4.31 14.294-26.951 43.51-32.96 68.94-45.367-13.849 7.45-27.686 15.603-38.9 26.661-4.245 4.209-8.563 8.325-12.304 13.005-2.661 3.317-4.443 10.835-9.951 10.011m133.798-92.582c6.75-1.187 13.207-.95 19.777-.147-26.685.096-56.656 25.32-83.678 38.38 13.659-7.802 26.178-17.245 39.38-25.746 7.52-4.856 15.538-10.885 24.521-12.487m-25.151-28.844c-5.638-10.305-7.251-22.319-9.33-33.702 3.514 19.26 15.522 37.903 30.75 49.975-8.115 1.032-18.012-10.026-21.42-16.273m30.303 9.146c-25.67-26.67-16.87-66.981-29.857-101.385l.437-.072c21.063 8.021 20.039 47.041 22.142 64.968 1.146 9.729 1.98 25.239 7.278 36.489m-44.637-110.787c1.074 1.357 2.118 2.839 3.038 4.393 5.22 8.914 2.508 20.656 1.221 30.394-1.303 10.022-2.988 20.029-3.245 30.145-.213 8.797 1.106 16.885 3.673 24.501-5.689-11.242-8.959-23.418-7.609-36.832 1.765-17.366 6.833-35.223 2.922-52.601m-79.839 230.351c-2.854.581-5.737-2.051-8.03-3.327 3.099-14.06 18.446-27.239 28.969-35.056 12.809-9.547 26.768-17.121 40.96-24.347 37.347-19.035 66.452-42.226 91.419-30.079-34.248-2.91-55.996 18.947-86.656 33.837-5.898 2.877-11.783 5.792-17.527 8.948-10.427 5.75-21.105 12.628-29.556 21.094-4.168 4.19-7.288 9.068-10.205 14.155-1.462 2.529-2.886 5.047-4.448 7.508-.674 1.08-2.98 5.767-4.411 6.989-.188.148-.363.243-.515.278m130.538-16.15c16.11-9.653 33.31-17.471 51.727-18.61l4.743-8.699c-7.124-.019-14.326.789-21.591 2.574-6.936 1.732-13.643 4.282-20.203 7.345 11.933-8.531 28.861-13.911 44.611-15.088l1.522-2.792c-33.458.531-46.879 16.641-77.335 35.601 4.531-17.758 25.211-28.399 41.096-34.01 11.479-4.055 26.366-8.157 39.55-7.665l1.505-2.758c-15.545-.303-31.656 3.551-45.372 9.176-50.355 20.598-25.552 31.665-61.758 51.186 9.249-44.358 73.576-80.543 109.202-64.164l5.686-10.428c-.33-.66-.649-1.318-.904-1.941-2.058-4.949-3.632-10.053-4.925-15.236-2.437-9.785-3.729-19.816-5.905-29.647 1.995 9.061 8.769 18.179 12.024 26.95.29.776.543 1.541.771 2.306 1.162 3.937 1.628 7.914 2.023 11.911l7.452-13.667c-7.897-17.644-15.679-35.333-24.642-52.249-10.843-20.471-21.793-40.908-32.567-61.41-5.995-11.405-15.308-27.202-30.349-26.842-10.318.249-25.08 11.297-34.507 4.365-7.702-5.696-11.24-14.211-16.63-21.81-8.319-11.762-18.021-21.241-32.346-24.672-12.891-3.079-26.669-.811-39.751-.946-20.764-.213-40.698-2.026-57.057-15.448-1.962-13.196-11.591-14.433-19.381-22.763-5.263-19.377-14.078-33.873-29.665-46.47-2.085-1.681-8.681-.828-8.8 2.475-.537 14.627 4.465 32.175-1.767 46.014-6.327 14.058-19.897 21.373-30.004 32.283-9.791 10.561-12.655 20.826-12.843 35.047-.192 13.6.225 27.202.545 40.806.122 5.409 1.208 11.371.897 16.653-.31 5.445-3.2 10.533-4.055 15.894-.927 5.763-.83 11.719-.616 17.521.388 11.002 3.322 21.745 8.063 31.634 10.225 21.341 29.147 35.895 43.767 53.941 33.973 41.938 96.301 77.238 108.676 82.381 21.105 8.77 44.618 10.243 66.761 4.269 22.991-6.197 42.246-20.979 62.352-33.017"/></svg>